<mxfile host="app.diagrams.net" agent="Mozilla/5.0 (Windows NT 10.0; Win64; x64) AppleWebKit/537.36 (KHTML, like Gecko) Chrome/130.0.0.0 Safari/537.36" version="24.8.6">
  <diagram name="Страница — 1" id="Og2O6v1_8cmMjE4YKY-o">
    <mxGraphModel dx="1114" dy="600" grid="1" gridSize="10" guides="1" tooltips="1" connect="1" arrows="1" fold="1" page="1" pageScale="1" pageWidth="827" pageHeight="1169" math="0" shadow="0">
      <root>
        <mxCell id="0" />
        <mxCell id="1" parent="0" />
        <mxCell id="f9OrkrOD7GsaYfjVP4bd-4" style="edgeStyle=orthogonalEdgeStyle;rounded=0;orthogonalLoop=1;jettySize=auto;html=1;exitX=0.755;exitY=0.5;exitDx=0;exitDy=0;exitPerimeter=0;endArrow=none;endFill=0;strokeWidth=3;" edge="1" parent="1" source="f9OrkrOD7GsaYfjVP4bd-1" target="f9OrkrOD7GsaYfjVP4bd-2">
          <mxGeometry relative="1" as="geometry" />
        </mxCell>
        <mxCell id="f9OrkrOD7GsaYfjVP4bd-5" style="edgeStyle=orthogonalEdgeStyle;rounded=0;orthogonalLoop=1;jettySize=auto;html=1;exitX=0.98;exitY=0.5;exitDx=0;exitDy=0;exitPerimeter=0;entryX=0;entryY=0.5;entryDx=0;entryDy=0;entryPerimeter=0;strokeWidth=3;endArrow=none;endFill=0;" edge="1" parent="1" source="f9OrkrOD7GsaYfjVP4bd-2" target="f9OrkrOD7GsaYfjVP4bd-3">
          <mxGeometry relative="1" as="geometry" />
        </mxCell>
        <mxCell id="f9OrkrOD7GsaYfjVP4bd-7" value="" style="group" vertex="1" connectable="0" parent="1">
          <mxGeometry x="170" y="180" width="83" height="62" as="geometry" />
        </mxCell>
        <mxCell id="f9OrkrOD7GsaYfjVP4bd-1" value="" style="shape=mxgraph.cisco.computers_and_peripherals.workstation;sketch=0;html=1;pointerEvents=1;dashed=0;fillColor=#036897;strokeColor=#ffffff;strokeWidth=2;verticalLabelPosition=bottom;verticalAlign=top;align=center;outlineConnect=0;" vertex="1" parent="f9OrkrOD7GsaYfjVP4bd-7">
          <mxGeometry width="83" height="62" as="geometry" />
        </mxCell>
        <mxCell id="f9OrkrOD7GsaYfjVP4bd-6" value="&lt;b&gt;&lt;font style=&quot;font-size: 14px;&quot;&gt;PC-A&lt;/font&gt;&lt;/b&gt;" style="text;html=1;align=center;verticalAlign=middle;whiteSpace=wrap;rounded=0;" vertex="1" parent="f9OrkrOD7GsaYfjVP4bd-7">
          <mxGeometry x="3" y="7" width="60" height="30" as="geometry" />
        </mxCell>
        <mxCell id="f9OrkrOD7GsaYfjVP4bd-9" value="" style="group" vertex="1" connectable="0" parent="1">
          <mxGeometry x="360" y="186" width="101" height="53" as="geometry" />
        </mxCell>
        <mxCell id="f9OrkrOD7GsaYfjVP4bd-2" value="" style="shape=mxgraph.cisco.switches.workgroup_switch;sketch=0;html=1;pointerEvents=1;dashed=0;fillColor=#036897;strokeColor=#ffffff;strokeWidth=2;verticalLabelPosition=bottom;verticalAlign=top;align=center;outlineConnect=0;" vertex="1" parent="f9OrkrOD7GsaYfjVP4bd-9">
          <mxGeometry width="101" height="50" as="geometry" />
        </mxCell>
        <mxCell id="f9OrkrOD7GsaYfjVP4bd-8" value="&lt;b&gt;&lt;font color=&quot;#ffffff&quot; style=&quot;font-size: 14px;&quot;&gt;S1&lt;/font&gt;&lt;/b&gt;" style="text;html=1;align=center;verticalAlign=middle;whiteSpace=wrap;rounded=0;" vertex="1" parent="f9OrkrOD7GsaYfjVP4bd-9">
          <mxGeometry x="10" y="23" width="60" height="30" as="geometry" />
        </mxCell>
        <mxCell id="f9OrkrOD7GsaYfjVP4bd-12" value="&lt;b&gt;&lt;font style=&quot;font-size: 14px;&quot;&gt;F0/6&lt;/font&gt;&lt;/b&gt;" style="text;html=1;align=center;verticalAlign=middle;whiteSpace=wrap;rounded=0;" vertex="1" parent="f9OrkrOD7GsaYfjVP4bd-9">
          <mxGeometry x="-50" y="23" width="60" height="30" as="geometry" />
        </mxCell>
        <mxCell id="f9OrkrOD7GsaYfjVP4bd-11" value="" style="group" vertex="1" connectable="0" parent="1">
          <mxGeometry x="580" y="185" width="78" height="57" as="geometry" />
        </mxCell>
        <mxCell id="f9OrkrOD7GsaYfjVP4bd-3" value="" style="shape=mxgraph.cisco.routers.router;sketch=0;html=1;pointerEvents=1;dashed=0;fillColor=#036897;strokeColor=#ffffff;strokeWidth=2;verticalLabelPosition=bottom;verticalAlign=top;align=center;outlineConnect=0;" vertex="1" parent="f9OrkrOD7GsaYfjVP4bd-11">
          <mxGeometry width="78" height="53" as="geometry" />
        </mxCell>
        <mxCell id="f9OrkrOD7GsaYfjVP4bd-10" value="&lt;b&gt;&lt;font color=&quot;#ffffff&quot; style=&quot;font-size: 14px;&quot;&gt;R1&lt;/font&gt;&lt;/b&gt;" style="text;html=1;align=center;verticalAlign=middle;whiteSpace=wrap;rounded=0;" vertex="1" parent="f9OrkrOD7GsaYfjVP4bd-11">
          <mxGeometry x="8" y="27" width="60" height="30" as="geometry" />
        </mxCell>
        <mxCell id="f9OrkrOD7GsaYfjVP4bd-13" value="&lt;b&gt;&lt;font style=&quot;font-size: 14px;&quot;&gt;F0/5&lt;/font&gt;&lt;/b&gt;" style="text;html=1;align=center;verticalAlign=middle;whiteSpace=wrap;rounded=0;" vertex="1" parent="1">
          <mxGeometry x="450" y="186" width="60" height="30" as="geometry" />
        </mxCell>
        <mxCell id="f9OrkrOD7GsaYfjVP4bd-16" value="&lt;b&gt;&lt;font style=&quot;font-size: 14px;&quot;&gt;G/0/0/1&lt;/font&gt;&lt;/b&gt;" style="text;html=1;align=center;verticalAlign=middle;whiteSpace=wrap;rounded=0;" vertex="1" parent="1">
          <mxGeometry x="525" y="207" width="60" height="34" as="geometry" />
        </mxCell>
      </root>
    </mxGraphModel>
  </diagram>
</mxfile>
